<svg width="886" height="667" viewBox="0 0 886 667" fill="none" xmlns="http://www.w3.org/2000/svg">
  <path d="M66.27 597.525q-14.57 0-27.26-3.525-12.455-3.525-24.44-11.28l-.705-.705q-.47-.47-.47-.94v-33.37q0-1.175.94-1.645t1.88.47q9.165 8.225 22.325 14.57t28.435 6.345q5.404 0 10.575-1.175 5.17-1.174 9.165-3.525 3.995-2.585 6.58-6.11 2.585-3.76 2.585-8.46 0-4.465-1.645-7.52-1.645-3.29-5.405-5.64-3.525-2.585-9.4-4.7-5.64-2.115-13.865-4.23-11.515-3.29-21.62-6.815-10.105-3.76-17.625-9.4t-11.985-13.865q-4.23-8.224-4.23-20.445t4.935-21.62 13.395-15.745q8.46-6.58 19.505-9.87 11.28-3.29 23.735-3.29t24.675 2.82q12.455 2.82 22.325 8.695.235.236.47.705.47.47.47.94v31.49q0 1.175-.94 1.645-.705.47-1.645-.235-8.225-6.815-20.445-11.515-11.985-4.7-26.085-4.7-10.575 0-17.39 4.935-6.815 4.7-6.815 13.16 0 4.465 1.88 7.99 2.115 3.29 5.875 5.875 3.995 2.35 9.635 4.465 5.876 1.88 13.395 3.76 11.28 2.82 21.385 6.58t17.39 9.635q7.52 5.64 11.75 13.865 4.465 8.225 4.465 19.975 0 13.63-5.64 23.735-5.405 9.87-14.57 16.215t-21.15 9.4q-11.75 3.055-24.44 3.055M172.863 594q-1.176 0-1.645-.705-.236-.705.235-1.645l18.565-40.185 51.23-122.67q.47-.94 1.645-.94h33.135q1.174 0 1.645.94l50.525 121.965 19.505 40.89q.47.94 0 1.645-.471.705-1.41.705h-39.245q-1.176 0-1.645-1.175l-7.99-25.615-2.585-6.815q-.47-.94-1.645-.94h-68.855q-1.176 0-1.645.94l-2.82 7.05-7.755 25.38q0 1.175-1.41 1.175zm87.42-122.2q-.47-1.175-1.645-1.175-.94 0-1.41 1.175l-22.56 56.4q-.94 2.35 1.41 2.35h45.355q2.349 0 1.41-2.35zM400.009 594q-1.645 0-1.645-1.645v-111.86l-.94-50.29q0-1.645 1.645-1.645h34.78q1.645 0 1.645 1.645l-1.175 51.23v79.43q0 1.645 1.645 1.645h30.08l42.065-1.175q1.645 0 1.645 1.645v30.315q0 1.645-1.645 1.645l-42.065-.94zm210.178-134.185q-1.645 0-1.645 1.645v86.715l.705 44.18q0 1.645-1.645 1.645h-34.31q-1.645 0-1.645-1.645l.94-43.71V461.46q0-1.645-1.645-1.645h-16.92l-29.61 1.41q-1.645 0-1.645-1.645v-30.315q0-1.645 1.645-1.645l30.785.94h69.325l31.96-.94q1.644 0 1.645 1.645v30.315q0 1.645-1.645 1.645l-31.255-1.41zM784.782 597.76q-19.27 0-35.485-6.58-15.98-6.58-27.73-18.095-11.75-11.75-18.33-27.495-6.58-15.98-6.58-34.545t6.58-34.31q6.58-15.98 18.33-27.495t27.965-17.86q16.215-6.58 35.485-6.58 19.035 0 35.25 6.58 16.215 6.345 27.965 17.86t18.33 27.26 6.58 34.31-6.58 34.545-18.565 27.73q-11.75 11.515-27.965 18.095t-35.25 6.58m.235-32.665q11.28 0 20.445-4.23 9.4-4.23 15.98-11.515 6.816-7.285 10.34-17.155 3.76-9.87 3.76-21.15t-3.76-20.915q-3.524-9.87-10.34-17.155-6.58-7.285-15.98-11.515t-20.68-4.23-20.68 4.23q-9.165 4.23-15.98 11.515-6.58 7.05-10.34 16.92-3.525 9.635-3.525 20.915t3.76 21.15 10.34 17.39q6.816 7.285 15.98 11.515 9.4 4.23 20.68 4.23M469.591 178.926c-1.11 2.06-2.266 4.072-3.314 6.148 55.215-52.987 114.719-82.183 187.597-103.486-18.663-1.334-37.386 1.469-55.512 5.865-45.306 11.52-88.4 36.61-117.124 73.991-4.256 5.544-8.232 11.377-11.647 17.482" fill="#000"/>
  <path d="M639.344 99.912c-23.274 2.372-46.451 11.624-63.418 28.016-2.516 2.433-4.911 5.028-7.052 7.799-.701.938-1.42 1.849-2.092 2.799 31.229-22.17 62.832-32.248 100.474-37.436-9.141-2.034-18.615-2.022-27.912-1.178M215.52 162.766c-24.167-4.006-50.129-1.032-71.78 10.861-3.209 1.766-6.344 3.728-9.269 5.94-.966.754-1.943 1.476-2.883 2.252 37.649-13.809 72.348-15.298 111.806-10.185-8.675-4.569-18.251-7.163-27.874-8.868" fill="#000"/>
  <path d="M401.407 207.274c-15.27-7.24-29.82-13.672-43.698-19.365-39.194-17.243-62.325-21.655-62.325-21.655.293-.108.586-.197.879-.297-176.599-52.676-211.228 36.044-211.228 36.044L64 163.911c102.258-64.24 194.253-44.527 256.254-13.882a323 323 0 0 1 11.501 5.985c.1-.024.202-.048.304-.062 1.035.57 2.08 1.148 3.115 1.738-.082.031-.155.054-.237.086a333 333 0 0 1 15.642 9.362c.356.224.704.457 1.05.682 12.5 8.184 22.055 15.432 22.055 15.432 17.825 13.587 27.723 24.022 27.723 24.022m393.631-24.523c-48.395-2.237-94.916-33.037-114.933-77.356-2.761-6.343-4.902-12.964-5.973-19.735 12.188 31.394 36.496 57.14 64.839 74.579 17.273 10.655 36.221 17.693 56.067 22.512" fill="#000"/>
  <path d="M867.345 123.788c-9.141 12.208-27.946 9.215-43.265 4.599-5.242-1.579-10.07-3.35-13.961-4.765-21.093-7.668-40.7-19.453-57.29-34.58-8.585-7.83-20.918-23.395-16.645-35.975 1.747-5.155 6.496-8.87 11.658-10.603 18.106-6.081 43.583 1.195 60.593 7.904 20.513 8.093 81.074 43.827 58.91 73.42m14.723-30.27c-8.402-25.579-30.384-46.437-53.533-59.061-22.736-12.398-50.627-19.94-76.571-19.69-19.854.192-42.074 3.53-56.472 18.595-3.836 4.015-6.885 8.728-9.022 13.849-4.741 11.345-4.169 23.779-1.08 35.471 2.764 10.457 7.815 20.21 13.898 29.155 22.204 32.652 58.37 54.008 97.338 59.374 27.676 3.813 61.403-3.425 78.279-27.507 11.531-16.454 12.508-33.948 7.163-50.185" fill="#000"/>
  <path d="M750.121 64.912c22.53 34.619 63.524 56.984 104.827 57.137-40.501-5.566-78.215-26.095-104.827-57.137m-63.055-39.596C704.053 3.88 733.849-.775 759.699.1c26.333 1.28 52.556 9.466 74.411 24.132-26.787-11.147-55.249-18.29-84.235-17.928-22.173.198-45.489 4.094-62.809 19.013m-363.043 86.829c.579-2.3 2.903-3.846 5.255-4.167s4.721.353 6.946 1.181c6.716 2.494 12.83 6.423 18.384 10.948 3.796 3.093 7.349 6.472 10.802 9.939 1.091 1.095 2.523 2.086 2.527 3.772.002 1.22-.366 1.811-1.445 1.261-1.572-.802-3.034-2.485-4.492-3.519a60 60 0 0 0-4.795-3.078c-6.58-3.803-13.87-6.385-21.388-7.511-2.762-.414-5.632-.661-8.086-1.992-2.455-1.329-4.39-4.126-3.708-6.834m-.009 22.131c5.174 3.113 11.186 4.467 17.08 5.773l28.002 6.212c8.007 1.776 17.72 5.629 25.863 5.538-1.093-2.345-3.901-4.531-5.479-6.763-2.823-3.994-5.711-7.912-8.878-11.645a139.7 139.7 0 0 0-20.884-19.988c-5.114-3.965-10.599-7.62-16.758-9.608s-13.11-2.17-18.936.65c-5.825 2.819-10.2 8.991-9.819 15.452.355 6.028 4.635 11.266 9.809 14.379m69.639-63.16c.212-2.83 2.038-5.627 4.756-6.444s6.088.878 6.588 3.672c.522 2.909-1.881 5.596-1.955 8.552-.064 2.51 1.542 4.726 3.129 6.673a132 132 0 0 0 9.826 10.792l-1.933-.046-11.6-9.437c-2.203-1.791-4.428-3.606-6.14-5.87-1.711-2.266-2.884-5.061-2.671-7.892m14.67 30.072 10.699 8.348c2.34 1.826 7.508 7.639 10.45 7.811 3.92.228 4.041-4.721 4.037-7.475-.013-7.471-1.693-17.682-5.079-24.454-2.441-6.33-7.711-16.806-14.513-23.85-3.969-4.11-10.577-8.917-16.714-7.275-5.964 1.596-9.726 9.036-10.145 14.686-.498 6.697 2.353 13.299 6.484 18.594 4.133 5.295 9.485 9.484 14.781 13.615m72.577 25.57c2.214-6.722 6.709-12.672 12.573-16.636 5.864-3.965 13.059-5.921 20.123-5.472 3.021.193 6.603 1.346 7.275 4.298.6 2.641-1.686 5.206-4.26 6.048s-5.361.475-8.067.397c-10.491-.305-20.986 4.215-28.105 11.908l-2.166 2.552a35 35 0 0 1 2.166-2.552zm-1.81 13.579 17.062-6.191 27.134-9.846c4.576-1.661 9.646-3.777 11.473-8.29 1.891-4.673-.765-10.27-4.975-13.044-4.21-2.773-9.536-3.249-14.567-2.926-12.27.79-24.211 5.984-33.155 14.421-5.246 4.949-16.138 17.562-14.783 25.575 1.051 6.219 8.001 1.683 11.811.301m46.136 32.795c-2.051-2.077-4.722-3.061-7.569-3.384-1.649-.186-5.66-.159-3.761-2.396 3.447-4.063 12.602-3.46 16.851-1.61 1.89.823 3.667 2.016 4.857 3.698 1.188 1.682 1.716 3.904 1.069 5.86s-2.605 3.497-4.659 3.349c-2.991-.215-4.684-3.382-6.788-5.517m12.408 8.842c3.803-3.161 4.591-9.118 2.38-13.543s-6.923-7.277-11.814-8.014c-4.892-.737-9.918.432-14.425 2.473-4.07 1.841-28.745 17.456-17.496 23.282 1.724.894 3.843.539 5.628-.224 1.785-.76 3.394-1.898 5.2-2.609 4.872-1.921 10.331-.507 15.467.519 5.137 1.028 11.032 1.465 15.06-1.884m85.812 30.679-.941 1.631c9.487 7.802 22.768 19.282 17.629 32.451-15.381 31.144-114.452 40.232-147.854 42.278-58.426 3.182-117.816 1.654-175.375-9.099-19.47-4.075-73.192-15.209-73.782-39.317.304-9.544 8.883-18.289 16.065-24.439l-1.002-1.594c-29.606 12.848-34.315 37.68-9.379 58.836 9.118 7.688 19.395 13.449 30.087 18.326 20.861 9.469 42.727 15.451 65.033 19.97 66.069 12.602 134.675 12.438 200.668-.717 32.486-7.152 69.221-17.396 94.602-40.168 24.455-23.436 12.611-47.216-15.751-58.158" fill="#000"/>
  <path d="M312.366 240.591c12.817 9.322 27.454 14.362 42.347 18.592 43.775 11.556 89.573 13.068 134.401 8.046 28.751-3.866 62.972-10.128 86.559-28.209 18.265-15.007 10.825-31.19-9.265-38.057l-.601 1.131c5.185 3.933 11.465 9.012 12.819 15.291 1.78 15.702-36.653 22.716-48.821 25.141-28.153 4.948-57.075 6.611-85.696 6.7-28.64.024-57.548-1.542-85.768-6.24-12.771-2.415-49.76-8.753-51.502-23.859-.01-6.309 6.136-11.888 11.041-15.853l-.642-1.108c-21.082 8.094-22.979 25.246-4.872 38.425" fill="#000"/>
  <path d="M393.638 222.019c-14.001-3.956-31.485-7.218-35.914-23.104-3.447 18.705 18.926 28.717 33.64 32.24 15.963 3.882 33.008 3.989 48.656-1.173-8.111-1.273-15.937-2.184-23.652-3.427-7.707-1.236-15.277-2.682-22.73-4.536m105.56 7.858c7.581 2.371 17.109-.988 21.554-8.047 3.458-5.228 3.102-13.174-1.586-17.674-6.19-5.944-15.252-5.875-22.84-4.527 6.954 3.678 18.223 5.045 19.215 13.733.203 8.179-8.635 13.871-16.343 16.515" fill="#000"/>
  <path d="M399.36 190.181c2.594-6.227-7.797-10.79-8.205-17.522-.257-4.234 3.949-7.754 8.181-8.015 4.234-.263 8.252 1.935 11.535 4.619 5.652 4.621 9.843 10.76 15.018 15.908 5.175 5.149 11.988 9.472 19.263 8.879 7.277-.591 14.066-8.074 11.66-14.966-2.006-5.745-9.115-8.744-10.497-14.668-1.673-7.17 7.519-13.405 14.426-10.854s10.362 10.745 9.808 18.086c-.554 7.342-4.204 14.043-7.774 20.483 6.281 1.109 12.769 2.297 18.065 5.854 5.296 3.554 9.104 10.156 7.406 16.305-1.901 6.878-9.839 10.487-16.973 10.308-13.704-.345-26.077-7.909-40.108-7.935-8.926-.018-16.938 3.81-25.658 4.26-8.299.426-20.875-4.475-22.775-13.466-2.986-14.132 13.107-8.828 16.628-17.276" fill="#000"/>
</svg>
