<svg width="990" height="990" viewBox="0 0 990 990" fill="none" xmlns="http://www.w3.org/2000/svg">
<path d="M118.27 758.525C108.557 758.525 99.47 757.35 91.01 755C82.7067 752.65 74.56 748.89 66.57 743.72C66.4133 743.563 66.1783 743.328 65.865 743.015C65.5517 742.702 65.395 742.388 65.395 742.075V708.705C65.395 707.922 65.7083 707.373 66.335 707.06C66.9617 706.747 67.5883 706.903 68.215 707.53C74.325 713.013 81.7667 717.87 90.54 722.1C99.3133 726.33 108.792 728.445 118.975 728.445C122.578 728.445 126.103 728.053 129.55 727.27C132.997 726.487 136.052 725.312 138.715 723.745C141.378 722.022 143.572 719.985 145.295 717.635C147.018 715.128 147.88 712.308 147.88 709.175C147.88 706.198 147.332 703.692 146.235 701.655C145.138 699.462 143.337 697.582 140.83 696.015C138.48 694.292 135.347 692.725 131.43 691.315C127.67 689.905 123.048 688.495 117.565 687.085C109.888 684.892 102.682 682.62 95.945 680.27C89.2083 677.763 83.3333 674.63 78.32 670.87C73.3067 667.11 69.3117 662.488 66.335 657.005C63.515 651.522 62.105 644.707 62.105 636.56C62.105 628.413 63.75 621.207 67.04 614.94C70.33 608.673 74.795 603.425 80.435 599.195C86.075 594.808 92.5767 591.518 99.94 589.325C107.46 587.132 115.372 586.035 123.675 586.035C131.978 586.035 140.203 586.975 148.35 588.855C156.653 590.735 164.095 593.633 170.675 597.55C170.832 597.707 170.988 597.942 171.145 598.255C171.458 598.568 171.615 598.882 171.615 599.195V630.685C171.615 631.468 171.302 632.017 170.675 632.33C170.205 632.643 169.657 632.565 169.03 632.095C163.547 627.552 156.732 623.713 148.585 620.58C140.595 617.447 131.9 615.88 122.5 615.88C115.45 615.88 109.653 617.525 105.11 620.815C100.567 623.948 98.295 628.335 98.295 633.975C98.295 636.952 98.9217 639.615 100.175 641.965C101.585 644.158 103.543 646.117 106.05 647.84C108.713 649.407 111.925 650.895 115.685 652.305C119.602 653.558 124.067 654.812 129.08 656.065C136.6 657.945 143.728 660.138 150.465 662.645C157.202 665.152 162.998 668.363 167.855 672.28C172.868 676.04 176.785 680.662 179.605 686.145C182.582 691.628 184.07 698.287 184.07 706.12C184.07 715.207 182.19 723.118 178.43 729.855C174.827 736.435 169.97 741.84 163.86 746.07C157.75 750.3 150.7 753.433 142.71 755.47C134.877 757.507 126.73 758.525 118.27 758.525ZM224.863 755C224.079 755 223.531 754.765 223.218 754.295C223.061 753.825 223.139 753.277 223.453 752.65L242.018 712.465L293.248 589.795C293.561 589.168 294.109 588.855 294.893 588.855H328.028C328.811 588.855 329.359 589.168 329.673 589.795L380.198 711.76L399.703 752.65C400.016 753.277 400.016 753.825 399.703 754.295C399.389 754.765 398.919 755 398.293 755H359.048C358.264 755 357.716 754.608 357.403 753.825L349.413 728.21L346.828 721.395C346.514 720.768 345.966 720.455 345.183 720.455H276.328C275.544 720.455 274.996 720.768 274.683 721.395L271.863 728.445L264.108 753.825C264.108 754.608 263.638 755 262.698 755H224.863ZM312.283 632.8C311.969 632.017 311.421 631.625 310.638 631.625C310.011 631.625 309.541 632.017 309.228 632.8L286.668 689.2C286.041 690.767 286.511 691.55 288.078 691.55H333.433C334.999 691.55 335.469 690.767 334.843 689.2L312.283 632.8ZM452.009 755C450.912 755 450.364 754.452 450.364 753.355V641.495L449.424 591.205C449.424 590.108 449.972 589.56 451.069 589.56H485.849C486.945 589.56 487.494 590.108 487.494 591.205L486.319 642.435V721.865C486.319 722.962 486.867 723.51 487.964 723.51H518.044L560.109 722.335C561.205 722.335 561.754 722.883 561.754 723.98V754.295C561.754 755.392 561.205 755.94 560.109 755.94L518.044 755H452.009ZM662.187 620.815C661.09 620.815 660.542 621.363 660.542 622.46V709.175L661.247 753.355C661.247 754.452 660.698 755 659.602 755H625.292C624.195 755 623.647 754.452 623.647 753.355L624.587 709.645V622.46C624.587 621.363 624.038 620.815 622.942 620.815H606.022L576.412 622.225C575.315 622.225 574.767 621.677 574.767 620.58V590.265C574.767 589.168 575.315 588.62 576.412 588.62L607.197 589.56H676.522L708.482 588.62C709.578 588.62 710.127 589.168 710.127 590.265V620.58C710.127 621.677 709.578 622.225 708.482 622.225L677.227 620.815H662.187ZM836.782 758.76C823.936 758.76 812.107 756.567 801.297 752.18C790.644 747.793 781.401 741.762 773.567 734.085C765.734 726.252 759.624 717.087 755.237 706.59C750.851 695.937 748.657 684.422 748.657 672.045C748.657 659.668 750.851 648.232 755.237 637.735C759.624 627.082 765.734 617.917 773.567 610.24C781.401 602.563 790.722 596.61 801.532 592.38C812.342 587.993 824.171 585.8 837.017 585.8C849.707 585.8 861.457 587.993 872.267 592.38C883.077 596.61 892.399 602.563 900.232 610.24C908.066 617.917 914.176 627.003 918.562 637.5C922.949 647.997 925.142 659.433 925.142 671.81C925.142 684.187 922.949 695.702 918.562 706.355C914.176 717.008 907.987 726.252 899.997 734.085C892.164 741.762 882.842 747.793 872.032 752.18C861.222 756.567 849.472 758.76 836.782 758.76ZM837.017 726.095C844.537 726.095 851.352 724.685 857.462 721.865C863.729 719.045 869.056 715.207 873.442 710.35C877.986 705.493 881.432 699.775 883.782 693.195C886.289 686.615 887.542 679.565 887.542 672.045C887.542 664.525 886.289 657.553 883.782 651.13C881.432 644.55 877.986 638.832 873.442 633.975C869.056 629.118 863.729 625.28 857.462 622.46C851.196 619.64 844.302 618.23 836.782 618.23C829.262 618.23 822.369 619.64 816.102 622.46C809.992 625.28 804.666 629.118 800.122 633.975C795.736 638.675 792.289 644.315 789.782 650.895C787.432 657.318 786.257 664.29 786.257 671.81C786.257 679.33 787.511 686.38 790.017 692.96C792.524 699.54 795.971 705.337 800.357 710.35C804.901 715.207 810.227 719.045 816.337 721.865C822.604 724.685 829.497 726.095 837.017 726.095Z" fill="black"/>
<path d="M521.591 339.926C520.481 341.986 519.325 343.998 518.277 346.074C573.492 293.087 632.996 263.891 705.874 242.588C687.211 241.254 668.488 244.057 650.362 248.453C605.056 259.973 561.962 285.063 533.238 322.444C528.982 327.988 525.006 333.821 521.591 339.926Z" fill="black"/>
<path d="M691.344 260.912C668.07 263.284 644.893 272.536 627.926 288.928C625.41 291.361 623.015 293.956 620.874 296.727C620.173 297.665 619.454 298.576 618.782 299.526C650.011 277.356 681.614 267.278 719.256 262.09C710.115 260.057 700.641 260.068 691.344 260.912Z" fill="black"/>
<path d="M267.52 323.766C243.353 319.76 217.391 322.734 195.74 334.627C192.531 336.393 189.396 338.355 186.471 340.567C185.505 341.321 184.528 342.043 183.588 342.819C221.237 329.01 255.936 327.521 295.394 332.634C286.719 328.065 277.143 325.471 267.52 323.766Z" fill="black"/>
<path d="M453.407 368.274C438.137 361.034 423.587 354.602 409.709 348.909C370.515 331.666 347.384 327.254 347.384 327.254C347.677 327.146 347.97 327.057 348.263 326.957C171.664 274.281 137.035 363.001 137.035 363.001L116 324.911C218.258 260.67 310.253 280.384 372.254 311.029C376.209 312.985 380.047 314.991 383.755 317.014C383.855 316.99 383.957 316.966 384.059 316.952C385.094 317.522 386.139 318.1 387.174 318.69C387.092 318.721 387.019 318.744 386.937 318.776C392.46 321.877 397.679 325.022 402.579 328.138C402.935 328.362 403.283 328.595 403.629 328.82C416.129 337.004 425.684 344.252 425.684 344.252C443.509 357.839 453.407 368.274 453.407 368.274Z" fill="black"/>
<path d="M847.038 343.751C798.643 341.514 752.122 310.714 732.105 266.395C729.344 260.053 727.203 253.431 726.132 246.66C738.32 278.054 762.628 303.8 790.971 321.239C808.244 331.894 827.192 338.932 847.038 343.751Z" fill="black"/>
<path d="M919.345 284.788C910.204 296.996 891.399 294.003 876.08 289.387C870.838 287.808 866.01 286.037 862.119 284.622C841.026 276.954 821.419 265.169 804.829 250.042C796.244 242.212 783.911 226.647 788.184 214.067C789.931 208.912 794.68 205.197 799.842 203.464C817.948 197.383 843.425 204.659 860.435 211.368C880.948 219.461 941.509 255.196 919.345 284.788ZM934.068 254.519C925.666 228.939 903.684 208.081 880.535 195.457C857.799 183.059 829.908 175.517 803.964 175.767C784.11 175.959 761.89 179.297 747.492 194.362C743.656 198.377 740.607 203.09 738.47 208.211C733.729 219.556 734.301 231.99 737.39 243.682C740.154 254.139 745.205 263.892 751.288 272.837C773.492 305.489 809.658 326.845 848.626 332.211C876.302 336.024 910.029 328.786 926.905 304.704C938.436 288.25 939.413 270.756 934.068 254.519Z" fill="black"/>
<path d="M802.121 225.912C824.651 260.531 865.645 282.896 906.948 283.049C866.447 277.483 828.733 256.955 802.121 225.912Z" fill="black"/>
<path d="M739.066 186.316C756.053 164.879 785.849 160.225 811.699 161.099C838.032 162.38 864.255 170.565 886.11 185.231C859.323 174.084 830.861 166.941 801.875 167.303C779.702 167.501 756.386 171.397 739.066 186.316Z" fill="black"/>
<path d="M376.023 273.146C376.602 270.846 378.926 269.3 381.278 268.979C383.629 268.658 385.999 269.332 388.224 270.16C394.94 272.654 401.054 276.583 406.608 281.108C410.404 284.201 413.957 287.58 417.41 291.047C418.501 292.142 419.933 293.133 419.937 294.819C419.939 296.039 419.571 296.63 418.492 296.08C416.92 295.278 415.458 293.595 414 292.561C412.452 291.46 410.851 290.433 409.205 289.483C402.625 285.68 395.335 283.098 387.817 281.972C385.055 281.558 382.185 281.311 379.731 279.98C377.276 278.651 375.341 275.854 376.023 273.146ZM376.014 295.277C381.188 298.39 387.2 299.744 393.094 301.05C402.428 303.121 411.762 305.192 421.096 307.262C429.103 309.038 438.816 312.891 446.959 312.8C445.866 310.455 443.058 308.269 441.48 306.037C438.657 302.043 435.769 298.125 432.602 294.392C426.354 287.034 419.348 280.318 411.718 274.404C406.604 270.439 401.119 266.784 394.96 264.796C388.801 262.807 381.85 262.626 376.024 265.446C370.199 268.265 365.824 274.437 366.205 280.898C366.56 286.926 370.84 292.164 376.014 295.277Z" fill="black"/>
<path d="M445.653 232.117C445.865 229.287 447.691 226.49 450.409 225.673C453.128 224.856 456.497 226.551 456.997 229.345C457.519 232.254 455.116 234.941 455.042 237.897C454.978 240.407 456.584 242.623 458.171 244.57C461.243 248.345 464.525 251.951 467.997 255.362L466.064 255.316L454.464 245.879C452.261 244.088 450.036 242.273 448.324 240.008C446.613 237.743 445.44 234.948 445.653 232.117ZM460.323 262.189C463.889 264.971 467.456 267.754 471.022 270.537C473.362 272.363 478.53 278.176 481.472 278.348C485.392 278.576 485.513 273.627 485.509 270.873C485.496 263.402 483.816 253.191 480.43 246.419C477.989 240.089 472.719 229.613 465.917 222.569C461.948 218.458 455.34 213.652 449.203 215.294C443.239 216.89 439.477 224.33 439.058 229.98C438.56 236.677 441.411 243.279 445.542 248.574C449.675 253.869 455.027 258.058 460.323 262.189Z" fill="black"/>
<path d="M532.9 287.759C535.114 281.037 539.609 275.087 545.473 271.123C551.337 267.158 558.532 265.202 565.596 265.651C568.617 265.844 572.199 266.997 572.871 269.949C573.471 272.59 571.185 275.155 568.611 275.997C566.038 276.839 563.25 276.472 560.544 276.394C550.053 276.089 539.558 280.609 532.439 288.302L530.273 290.854C530.95 289.965 531.682 289.121 532.439 288.302L532.9 287.759ZM531.09 301.338C536.777 299.274 542.464 297.21 548.152 295.147C557.197 291.864 566.242 288.583 575.286 285.301C579.862 283.64 584.932 281.524 586.759 277.011C588.65 272.338 585.994 266.741 581.784 263.967C577.574 261.194 572.248 260.718 567.217 261.041C554.947 261.831 543.006 267.025 534.062 275.462C528.816 280.411 517.924 293.024 519.279 301.037C520.33 307.256 527.28 302.72 531.09 301.338Z" fill="black"/>
<path d="M577.226 334.133C575.175 332.056 572.504 331.072 569.657 330.749C568.008 330.563 563.997 330.59 565.896 328.353C569.343 324.29 578.498 324.893 582.747 326.743C584.637 327.566 586.414 328.759 587.604 330.441C588.792 332.123 589.32 334.345 588.673 336.301C588.026 338.257 586.068 339.798 584.014 339.65C581.023 339.435 579.33 336.268 577.226 334.133ZM589.634 342.975C593.437 339.814 594.225 333.857 592.014 329.432C589.803 325.008 585.091 322.155 580.2 321.418C575.308 320.681 570.282 321.85 565.775 323.891C561.705 325.732 537.03 341.347 548.279 347.173C550.003 348.067 552.122 347.712 553.907 346.949C555.692 346.189 557.301 345.051 559.107 344.34C563.979 342.419 569.438 343.833 574.574 344.859C579.711 345.887 585.606 346.324 589.634 342.975Z" fill="black"/>
<path d="M675.446 373.654L674.505 375.285C683.992 383.087 697.273 394.567 692.134 407.736C676.753 438.88 577.682 447.968 544.28 450.014C485.854 453.196 426.464 451.668 368.905 440.915C349.435 436.84 295.713 425.706 295.123 401.598C295.427 392.054 304.006 383.309 311.188 377.159L310.186 375.565C280.58 388.413 275.871 413.245 300.807 434.401C309.925 442.089 320.202 447.85 330.894 452.727C351.755 462.196 373.621 468.178 395.927 472.697C461.996 485.299 530.602 485.135 596.595 471.98C629.081 464.828 665.816 454.584 691.197 431.812C715.652 408.376 703.808 384.596 675.446 373.654Z" fill="black"/>
<path d="M364.366 401.591C377.183 410.913 391.82 415.953 406.713 420.183C450.488 431.739 496.286 433.251 541.114 428.229C569.865 424.363 604.086 418.101 627.673 400.02C645.938 385.013 638.498 368.83 618.408 361.963L617.807 363.094C622.992 367.027 629.272 372.106 630.626 378.385C632.406 394.087 593.973 401.101 581.805 403.526C553.652 408.474 524.73 410.137 496.109 410.226C467.469 410.25 438.561 408.684 410.341 403.986C397.57 401.571 360.581 395.233 358.839 380.127C358.829 373.818 364.975 368.239 369.88 364.274L369.238 363.166C348.156 371.26 346.259 388.412 364.366 401.591Z" fill="black"/>
<path d="M445.638 383.019C431.637 379.063 414.153 375.801 409.724 359.915C406.277 378.62 428.65 388.632 443.364 392.155C459.327 396.037 476.372 396.144 492.02 390.982C483.909 389.709 476.083 388.798 468.368 387.555C460.661 386.319 453.091 384.873 445.638 383.019Z" fill="black"/>
<path d="M551.198 390.877C558.779 393.248 568.307 389.889 572.752 382.83C576.21 377.602 575.854 369.656 571.166 365.156C564.976 359.212 555.914 359.281 548.326 360.629C555.28 364.307 566.549 365.674 567.541 374.362C567.744 382.541 558.906 388.233 551.198 390.877Z" fill="black"/>
<path d="M451.36 351.181C453.954 344.954 443.563 340.391 443.155 333.659C442.898 329.425 447.104 325.905 451.336 325.644C455.57 325.381 459.588 327.579 462.871 330.263C468.523 334.884 472.714 341.023 477.889 346.171C483.064 351.32 489.877 355.643 497.152 355.05C504.429 354.459 511.218 346.976 508.812 340.084C506.806 334.339 499.697 331.34 498.315 325.416C496.642 318.246 505.834 312.011 512.741 314.562C519.648 317.114 523.103 325.307 522.549 332.648C521.995 339.99 518.345 346.691 514.775 353.131C521.056 354.24 527.544 355.428 532.84 358.985C538.136 362.539 541.944 369.141 540.246 375.29C538.345 382.168 530.407 385.777 523.273 385.598C509.569 385.253 497.196 377.689 483.165 377.663C474.239 377.645 466.227 381.473 457.507 381.923C449.208 382.349 436.632 377.448 434.732 368.457C431.746 354.325 447.839 359.629 451.36 351.181Z" fill="black"/>
</svg>
